<svg xmlns="http://www.w3.org/2000/svg" xmlns:xlink="http://www.w3.org/1999/xlink" width="500" zoomAndPan="magnify" viewBox="0 0 375 374.999991" height="500" preserveAspectRatio="xMidYMid meet" version="1.0"><defs><g/><clipPath id="13f694909f"><path d="M 47 17.773438 L 328 17.773438 L 328 160 L 47 160 Z M 47 17.773438 " clip-rule="nonzero"/></clipPath><clipPath id="7a50b76c0a"><path d="M 28.664062 166 L 346.664062 166 L 346.664062 195 L 28.664062 195 Z M 28.664062 166 " clip-rule="nonzero"/></clipPath><clipPath id="7cf10c91e2"><path d="M 0.558594 1 L 1.28125 1 L 1.28125 2 L 0.558594 2 Z M 0.558594 1 " clip-rule="nonzero"/></clipPath><clipPath id="a7f7d538c4"><rect x="0" width="2" y="0" height="3"/></clipPath></defs><rect x="-37.5" width="450" fill="#ffffff" y="-37.499999" height="449.999989" fill-opacity="1"/><rect x="-37.5" width="450" fill="#ffffff" y="-37.499999" height="449.999989" fill-opacity="1"/><g clip-path="url(#13f694909f)"><path fill="#1800ad" d="M 245.136719 31.554688 L 231.636719 136.292969 L 231.636719 134.886719 C 231.683594 134.460938 231.714844 134.03125 231.714844 133.59375 L 231.714844 28.972656 C 231.714844 28.535156 231.683594 28.105469 231.636719 27.679688 L 231.636719 26.285156 C 231.546875 26.253906 231.457031 26.226562 231.363281 26.195312 C 230.128906 21.351562 225.738281 17.769531 220.511719 17.769531 L 154.484375 17.769531 C 149.253906 17.769531 144.863281 21.351562 143.628906 26.195312 C 143.539062 26.226562 143.449219 26.253906 143.355469 26.285156 L 143.355469 27.679688 C 143.308594 28.105469 143.28125 28.535156 143.28125 28.972656 L 143.28125 133.59375 C 143.28125 134.03125 143.308594 134.460938 143.355469 134.886719 L 143.355469 136.296875 L 129.859375 31.554688 C 81.214844 53.53125 47.367188 102.472656 47.367188 159.316406 L 327.625 159.316406 C 327.628906 102.472656 293.777344 53.53125 245.136719 31.554688 Z M 245.136719 31.554688 " fill-opacity="1" fill-rule="nonzero"/></g><g clip-path="url(#7a50b76c0a)"><path fill="#1800ad" d="M 332.386719 166.347656 L 42.609375 166.347656 C 34.96875 166.347656 28.777344 172.539062 28.777344 180.175781 C 28.777344 187.816406 34.972656 194.007812 42.609375 194.007812 L 332.386719 194.007812 C 340.027344 194.007812 346.21875 187.816406 346.21875 180.175781 C 346.21875 172.539062 340.027344 166.347656 332.386719 166.347656 Z M 332.386719 166.347656 " fill-opacity="1" fill-rule="nonzero"/></g><path fill="#000000" d="M 251.5 208.195312 C 251.5 243.542969 222.847656 272.199219 187.5 272.199219 C 152.152344 272.199219 123.496094 243.542969 123.496094 208.195312 L 39.984375 208.195312 L 39.984375 225.378906 C 39.984375 229.71875 43.058594 233.457031 47.316406 234.292969 L 73.832031 239.5 C 74.648438 239.660156 75.460938 239.703125 76.246094 239.648438 C 78.726562 248.441406 82.226562 256.804688 86.605469 264.613281 C 86.003906 265.132812 85.457031 265.738281 84.988281 266.4375 L 69.921875 288.867188 C 67.503906 292.472656 67.96875 297.285156 71.039062 300.355469 L 95.339844 324.65625 C 98.410156 327.722656 103.222656 328.195312 106.828125 325.773438 L 129.257812 310.707031 C 129.957031 310.238281 130.5625 309.691406 131.082031 309.089844 C 138.890625 313.464844 147.253906 316.964844 156.046875 319.449219 C 155.992188 320.234375 156.035156 321.046875 156.195312 321.863281 L 161.402344 348.378906 C 162.238281 352.636719 165.976562 355.710938 170.316406 355.710938 L 204.679688 355.710938 C 209.023438 355.710938 212.757812 352.636719 213.59375 348.378906 L 218.800781 321.863281 C 218.964844 321.042969 219.003906 320.234375 218.949219 319.449219 C 227.742188 316.964844 236.109375 313.464844 243.917969 309.089844 C 244.4375 309.691406 245.042969 310.238281 245.738281 310.707031 L 268.171875 325.773438 C 271.773438 328.191406 276.589844 327.722656 279.660156 324.65625 L 303.957031 300.355469 C 307.027344 297.285156 307.496094 292.472656 305.074219 288.867188 L 290.011719 266.4375 C 289.539062 265.738281 288.996094 265.132812 288.394531 264.613281 C 292.769531 256.804688 296.269531 248.441406 298.75 239.648438 C 299.539062 239.703125 300.347656 239.660156 301.167969 239.5 L 327.679688 234.292969 C 331.941406 233.457031 335.011719 229.71875 335.011719 225.378906 L 335.011719 208.195312 Z M 251.5 208.195312 " fill-opacity="1" fill-rule="nonzero"/><g transform="matrix(1, 0, 0, 1, 4, 367)"><g clip-path="url(#a7f7d538c4)"><g clip-path="url(#7cf10c91e2)"><g fill="#000000" fill-opacity="1"><g transform="translate(0.61103, 1.659993)"><g><path d="M 0.453125 0 L 0.453125 -0.34375 C 0.453125 -0.382812 0.441406 -0.414062 0.421875 -0.4375 C 0.398438 -0.457031 0.367188 -0.46875 0.328125 -0.46875 C 0.273438 -0.46875 0.234375 -0.453125 0.203125 -0.421875 C 0.179688 -0.398438 0.171875 -0.351562 0.171875 -0.28125 L 0.171875 0 L 0.09375 0 L 0.09375 -0.53125 L 0.15625 -0.53125 L 0.171875 -0.46875 C 0.179688 -0.488281 0.203125 -0.503906 0.234375 -0.515625 C 0.265625 -0.535156 0.300781 -0.546875 0.34375 -0.546875 C 0.40625 -0.546875 0.453125 -0.53125 0.484375 -0.5 C 0.515625 -0.46875 0.53125 -0.414062 0.53125 -0.34375 L 0.53125 0 Z M 0.453125 0 "/></g></g></g></g></g></g></svg>