<svg xmlns="http://www.w3.org/2000/svg" xmlns:xlink="http://www.w3.org/1999/xlink" width="500" zoomAndPan="magnify" viewBox="0 0 375 374.999991" height="500" preserveAspectRatio="xMidYMid meet" version="1.2"><defs><clipPath id="40ac996703"><path d="M 92 69.144531 L 283 69.144531 L 283 165 L 92 165 Z M 92 69.144531 "/></clipPath><clipPath id="d361a1a340"><path d="M 80.320312 169 L 294.820312 169 L 294.820312 189 L 80.320312 189 Z M 80.320312 169 "/></clipPath><clipPath id="3045cd0cb2"><path d="M 87 197 L 288 197 L 288 297.144531 L 87 297.144531 Z M 87 197 "/></clipPath></defs><g id="f3b732eed1"><g clip-rule="nonzero" clip-path="url(#40ac996703)"><path style=" stroke:none;fill-rule:nonzero;fill:#1800ad;fill-opacity:1;" d="M 226.367188 78.4375 L 217.261719 149.105469 L 217.261719 148.152344 C 217.292969 147.867188 217.3125 147.578125 217.3125 147.28125 L 217.3125 76.699219 C 217.3125 76.402344 217.292969 76.113281 217.261719 75.824219 L 217.261719 74.882812 C 217.199219 74.863281 217.140625 74.84375 217.078125 74.824219 C 216.246094 71.558594 213.28125 69.140625 209.753906 69.140625 L 165.210938 69.140625 C 161.679688 69.140625 158.71875 71.558594 157.886719 74.824219 C 157.824219 74.84375 157.761719 74.863281 157.703125 74.882812 L 157.703125 75.824219 C 157.667969 76.113281 157.652344 76.402344 157.652344 76.699219 L 157.652344 147.285156 C 157.652344 147.578125 157.667969 147.867188 157.703125 148.15625 L 157.703125 149.105469 L 148.59375 78.441406 C 115.777344 93.269531 92.941406 126.285156 92.941406 164.636719 L 282.019531 164.636719 C 282.023438 126.285156 259.1875 93.265625 226.367188 78.4375 Z M 226.367188 78.4375 "/></g><g clip-rule="nonzero" clip-path="url(#d361a1a340)"><path style=" stroke:none;fill-rule:nonzero;fill:#1800ad;fill-opacity:1;" d="M 285.234375 169.378906 L 89.730469 169.378906 C 84.578125 169.378906 80.402344 173.558594 80.402344 178.710938 C 80.402344 183.863281 84.578125 188.042969 89.730469 188.042969 L 285.234375 188.042969 C 290.390625 188.042969 294.566406 183.863281 294.566406 178.710938 C 294.566406 173.554688 290.390625 169.378906 285.234375 169.378906 Z M 285.234375 169.378906 "/></g><g clip-rule="nonzero" clip-path="url(#3045cd0cb2)"><path style=" stroke:none;fill-rule:nonzero;fill:#ffffff;fill-opacity:1;" d="M 230.664062 197.613281 C 230.664062 221.460938 211.332031 240.792969 187.484375 240.792969 C 163.636719 240.792969 144.304688 221.460938 144.304688 197.613281 L 87.960938 197.613281 L 87.960938 209.207031 C 87.960938 212.136719 90.035156 214.65625 92.90625 215.21875 L 110.796875 218.734375 C 111.347656 218.839844 111.894531 218.871094 112.425781 218.832031 C 114.097656 224.765625 116.460938 230.410156 119.414062 235.675781 C 119.007812 236.027344 118.636719 236.4375 118.324219 236.90625 L 108.160156 252.039062 C 106.527344 254.472656 106.839844 257.71875 108.914062 259.789062 L 125.304688 276.183594 C 127.378906 278.253906 130.625 278.570312 133.058594 276.9375 L 148.191406 266.773438 C 148.660156 266.457031 149.070312 266.089844 149.421875 265.683594 C 154.6875 268.636719 160.332031 270.996094 166.265625 272.671875 C 166.226562 273.203125 166.253906 273.75 166.363281 274.300781 L 169.878906 292.1875 C 170.441406 295.0625 172.960938 297.136719 175.890625 297.136719 L 199.074219 297.136719 C 202.003906 297.136719 204.523438 295.0625 205.089844 292.1875 L 208.601562 274.300781 C 208.710938 273.75 208.738281 273.203125 208.703125 272.671875 C 214.636719 270.996094 220.277344 268.636719 225.546875 265.683594 C 225.898438 266.089844 226.304688 266.457031 226.777344 266.773438 L 241.910156 276.9375 C 244.339844 278.570312 247.589844 278.253906 249.660156 276.183594 L 266.054688 259.789062 C 268.125 257.71875 268.441406 254.472656 266.808594 252.039062 L 256.644531 236.90625 C 256.328125 236.4375 255.960938 236.027344 255.554688 235.675781 C 258.503906 230.410156 260.867188 224.765625 262.542969 218.832031 C 263.074219 218.871094 263.621094 218.839844 264.171875 218.734375 L 282.058594 215.21875 C 284.933594 214.65625 287.007812 212.136719 287.007812 209.207031 L 287.007812 197.613281 Z M 230.664062 197.613281 "/></g><g style="fill:#000000;fill-opacity:1;"><g transform="translate(4.61103, 368.659992)"><path style="stroke:none" d="M 0.453125 0 L 0.453125 -0.34375 C 0.453125 -0.382812 0.441406 -0.414062 0.421875 -0.4375 C 0.398438 -0.457031 0.367188 -0.46875 0.328125 -0.46875 C 0.273438 -0.46875 0.234375 -0.453125 0.203125 -0.421875 C 0.179688 -0.398438 0.171875 -0.351562 0.171875 -0.28125 L 0.171875 0 L 0.09375 0 L 0.09375 -0.53125 L 0.15625 -0.53125 L 0.171875 -0.46875 C 0.179688 -0.488281 0.203125 -0.503906 0.234375 -0.515625 C 0.265625 -0.535156 0.300781 -0.546875 0.34375 -0.546875 C 0.40625 -0.546875 0.453125 -0.53125 0.484375 -0.5 C 0.515625 -0.46875 0.53125 -0.414062 0.53125 -0.34375 L 0.53125 0 Z M 0.453125 0 "/></g></g></g></svg>